<svg width="28" height="28" viewBox="0 0 28 28" fill="none" xmlns="http://www.w3.org/2000/svg">
    <path fill-rule="evenodd" clip-rule="evenodd"
        d="M16.1617 3.17288C16.3138 3.38818 16.3436 3.68599 16.4032 4.28162C16.5162 5.41164 16.5727 5.97665 16.8723 6.23702C17.0361 6.37932 17.2417 6.46449 17.4582 6.47968C17.8542 6.50748 18.2937 6.14791 19.1726 5.42877C19.6359 5.04972 19.8675 4.8602 20.1273 4.81555C20.2725 4.7906 20.4214 4.79802 20.5634 4.83729C20.8174 4.90758 21.0291 5.11921 21.4523 5.54247L22.4575 6.54762C22.8808 6.9709 23.0924 7.18254 23.1627 7.43662C23.2019 7.57858 23.2094 7.72745 23.1844 7.87261C23.1398 8.13243 22.9502 8.36407 22.5712 8.82735L22.5712 8.82736C21.852 9.70633 21.4924 10.1458 21.5203 10.5418C21.5355 10.7583 21.6206 10.9639 21.7629 11.1276C22.0233 11.4273 22.5883 11.4838 23.7184 11.5968C24.314 11.6564 24.6118 11.6862 24.8271 11.8383C24.9474 11.9233 25.0474 12.0338 25.12 12.162C25.25 12.3914 25.25 12.6907 25.25 13.2893V14.7109C25.25 15.3093 25.25 15.6086 25.1201 15.8379C25.0475 15.9661 24.9474 16.0767 24.827 16.1617C24.6118 16.3138 24.314 16.3436 23.7185 16.4032C22.5887 16.5161 22.0238 16.5726 21.7635 16.8721C21.6211 17.036 21.5358 17.2418 21.5207 17.4584C21.493 17.8542 21.8524 18.2936 22.5713 19.1723L22.5714 19.1723C22.9503 19.6354 23.1398 19.867 23.1844 20.1267C23.2094 20.272 23.202 20.421 23.1627 20.563C23.0924 20.817 22.8808 21.0286 22.4577 21.4517L21.4524 22.457C21.0291 22.8803 20.8175 23.0919 20.5634 23.1622C20.4214 23.2015 20.2726 23.2089 20.1274 23.184C19.8676 23.1393 19.6359 22.9498 19.1727 22.5707C18.2937 21.8516 17.8542 21.492 17.4582 21.5198C17.2418 21.535 17.0362 21.6202 16.8724 21.7625C16.5727 22.0228 16.5162 22.5879 16.4032 23.7181C16.3436 24.314 16.3138 24.6119 16.1616 24.8272C16.0766 24.9474 15.9662 25.0474 15.8381 25.12C15.6087 25.25 15.3093 25.25 14.7106 25.25H13.2893C12.6907 25.25 12.3914 25.25 12.162 25.12C12.0338 25.0474 11.9233 24.9474 11.8383 24.8271C11.6862 24.6118 11.6564 24.314 11.5968 23.7184C11.4838 22.5883 11.4273 22.0233 11.1276 21.7629C10.9639 21.6206 10.7583 21.5355 10.5419 21.5203C10.1458 21.4925 9.70633 21.852 8.82733 22.5712C8.36403 22.9503 8.13237 23.1398 7.87254 23.1845C7.7274 23.2094 7.57853 23.202 7.43659 23.1627C7.18249 23.0924 6.97085 22.8808 6.54756 22.4575L5.54244 21.4524C5.11916 21.0291 4.90752 20.8175 4.83724 20.5634C4.79797 20.4214 4.79055 20.2726 4.81549 20.1274C4.86014 19.8676 5.04968 19.6359 5.42874 19.1726C6.14789 18.2937 6.50747 17.8542 6.47967 17.4582C6.46448 17.2417 6.37931 17.0361 6.23702 16.8723C5.97665 16.5727 5.41164 16.5162 4.28161 16.4032C3.68599 16.3436 3.38818 16.3138 3.17289 16.1617C3.0526 16.0767 2.95258 15.9661 2.87996 15.838C2.75 15.6086 2.75 15.3093 2.75 14.7107V13.2894C2.75 12.6907 2.75 12.3913 2.88002 12.1619C2.95261 12.0338 3.05258 11.9234 3.17279 11.8384C3.38812 11.6862 3.68599 11.6564 4.28174 11.5968H4.28175C5.41203 11.4838 5.97717 11.4273 6.23755 11.1275C6.37974 10.9638 6.46486 10.7583 6.48008 10.542C6.50796 10.1458 6.14828 9.70625 5.42894 8.82705C5.04974 8.36358 4.86014 8.13185 4.81552 7.87194C4.79061 7.72689 4.79803 7.57812 4.83725 7.43627C4.90751 7.18209 5.11922 6.97038 5.54262 6.54698L5.54263 6.54697L6.54761 5.54199C6.9709 5.1187 7.18254 4.90706 7.43664 4.83677C7.57858 4.79751 7.72745 4.79009 7.87259 4.81503C8.13242 4.85968 8.36411 5.04924 8.82747 5.42836C9.70635 6.14744 10.1458 6.50698 10.5417 6.47925C10.7583 6.46408 10.964 6.37887 11.1278 6.23647C11.4274 5.97612 11.4839 5.41124 11.5969 4.28147C11.6564 3.68598 11.6862 3.38824 11.8383 3.17298C11.9233 3.05262 12.0339 2.95254 12.1621 2.87991C12.3914 2.75 12.6907 2.75 13.2891 2.75H14.7107C15.3093 2.75 15.6086 2.75 15.838 2.87997C15.9661 2.95258 16.0767 3.0526 16.1617 3.17288ZM14 18.5C16.4853 18.5 18.5 16.4853 18.5 14C18.5 11.5147 16.4853 9.5 14 9.5C11.5147 9.5 9.5 11.5147 9.5 14C9.5 16.4853 11.5147 18.5 14 18.5Z"
         />
    <path
        d="M16.4032 4.28162L15.8061 4.34132V4.34132L16.4032 4.28162ZM16.1617 3.17288L16.6517 2.82662L16.6517 2.82661L16.1617 3.17288ZM16.8723 6.23702L17.2659 5.78409V5.78409L16.8723 6.23702ZM17.4582 6.47968L17.5002 5.88115L17.4582 6.47968ZM19.1726 5.42877L19.5525 5.89315V5.89315L19.1726 5.42877ZM20.1273 4.81555L20.0257 4.22422V4.22422L20.1273 4.81555ZM20.5634 4.83729L20.7233 4.25901L20.7233 4.25901L20.5634 4.83729ZM21.4523 5.54247L21.0281 5.96674V5.96674L21.4523 5.54247ZM22.4575 6.54762L22.0332 6.97189L22.0332 6.97189L22.4575 6.54762ZM23.1627 7.43662L22.5844 7.59658L22.5844 7.59659L23.1627 7.43662ZM23.1844 7.87261L23.7757 7.97424L23.7757 7.97423L23.1844 7.87261ZM22.5712 8.82735L22.1068 8.44741L22.096 8.46063L22.086 8.47445L22.5712 8.82735ZM22.5712 8.82736L23.0356 9.20731L23.0464 9.19408L23.0564 9.18027L22.5712 8.82736ZM21.5203 10.5418L22.1188 10.4998V10.4998L21.5203 10.5418ZM21.7629 11.1276L22.2158 10.7341V10.7341L21.7629 11.1276ZM23.7184 11.5968L23.6587 12.1939L23.7184 11.5968ZM24.8271 11.8383L25.1734 11.3483L24.8271 11.8383ZM25.12 12.162L24.598 12.4578L24.598 12.4578L25.12 12.162ZM25.1201 15.8379L25.6421 16.1337L25.6421 16.1337L25.1201 15.8379ZM24.827 16.1617L25.1733 16.6518L25.1733 16.6518L24.827 16.1617ZM23.7185 16.4032L23.7782 17.0002L23.7185 16.4032ZM21.7635 16.8721L22.2163 17.2658L22.2163 17.2658L21.7635 16.8721ZM21.5207 17.4584L20.9221 17.4165V17.4165L21.5207 17.4584ZM22.5713 19.1723L22.107 19.5522L22.1259 19.5754L22.1471 19.5965L22.5713 19.1723ZM22.5714 19.1723L23.0357 18.7923L23.0168 18.7692L22.9956 18.748L22.5714 19.1723ZM23.1844 20.1267L22.5931 20.2285L23.1844 20.1267ZM23.1627 20.563L22.5844 20.403V20.403L23.1627 20.563ZM20.5634 23.1622L20.7234 23.7405H20.7234L20.5634 23.1622ZM20.1274 23.184L20.229 22.5926H20.229L20.1274 23.184ZM19.1727 22.5707L19.5526 22.1064H19.5526L19.1727 22.5707ZM17.4582 21.5198L17.4162 20.9213L17.4162 20.9213L17.4582 21.5198ZM16.8724 21.7625L16.4789 21.3095H16.4789L16.8724 21.7625ZM16.4032 23.7181L17.0002 23.7778V23.7778L16.4032 23.7181ZM16.1616 24.8272L16.6515 25.1736L16.6516 25.1736L16.1616 24.8272ZM15.8381 25.12L15.5423 24.598V24.598L15.8381 25.12ZM12.162 25.12L11.8662 25.642L11.8662 25.642L12.162 25.12ZM11.8383 24.8271L12.3283 24.4809L12.3283 24.4809L11.8383 24.8271ZM11.5968 23.7184L12.1939 23.6587L11.5968 23.7184ZM11.1276 21.7629L11.5211 21.31L11.5211 21.31L11.1276 21.7629ZM10.5419 21.5203L10.5839 20.9217H10.5839L10.5419 21.5203ZM8.82733 22.5712L9.20728 23.0356H9.20728L8.82733 22.5712ZM7.87254 23.1845L7.77092 22.5931H7.77092L7.87254 23.1845ZM7.43659 23.1627L7.59655 22.5844L7.59654 22.5844L7.43659 23.1627ZM6.54756 22.4575L6.12329 22.8818V22.8818L6.54756 22.4575ZM5.54244 21.4524L5.9667 21.0281V21.0281L5.54244 21.4524ZM4.83724 20.5634L4.25895 20.7233L4.25895 20.7233L4.83724 20.5634ZM4.81549 20.1274L4.22416 20.0258L4.22416 20.0258L4.81549 20.1274ZM5.42874 19.1726L5.89312 19.5526L5.89312 19.5526L5.42874 19.1726ZM6.47967 17.4582L5.88114 17.5002V17.5002L6.47967 17.4582ZM6.23702 16.8723L5.78408 17.2659L5.78408 17.2659L6.23702 16.8723ZM4.28161 16.4032L4.34131 15.8061H4.34131L4.28161 16.4032ZM3.17289 16.1617L3.51915 15.6717L3.51915 15.6717L3.17289 16.1617ZM2.87996 15.838L3.40199 15.5422L3.40199 15.5422L2.87996 15.838ZM2.88002 12.1619L3.40201 12.4578L3.40201 12.4578L2.88002 12.1619ZM3.17279 11.8384L2.82647 11.3484L2.82647 11.3484L3.17279 11.8384ZM4.28174 11.5968V10.9968H4.25181L4.22203 10.9998L4.28174 11.5968ZM4.28175 11.5968V12.1968H4.31167L4.34145 12.1938L4.28175 11.5968ZM6.23755 11.1275L5.78455 10.734L6.23755 11.1275ZM6.48008 10.542L5.88156 10.4998L5.88156 10.4998L6.48008 10.542ZM5.42894 8.82705L4.96456 9.20699L4.96456 9.20699L5.42894 8.82705ZM4.81552 7.87194L4.22417 7.97347L4.22417 7.97347L4.81552 7.87194ZM4.83725 7.43627L4.25894 7.2764H4.25894L4.83725 7.43627ZM5.54262 6.54698L5.11836 6.12271V6.12271L5.54262 6.54698ZM7.43664 4.83677L7.59659 5.41506H7.59659L7.43664 4.83677ZM7.87259 4.81503L7.97421 4.2237H7.97421L7.87259 4.81503ZM8.82747 5.42836L8.44753 5.89273L8.82747 5.42836ZM10.5417 6.47925L10.4998 5.88071L10.5417 6.47925ZM11.1278 6.23647L10.7342 5.7836L10.7342 5.7836L11.1278 6.23647ZM11.5969 4.28147L12.1939 4.34117V4.34117L11.5969 4.28147ZM11.8383 3.17298L11.3482 2.82677L11.3482 2.82677L11.8383 3.17298ZM12.1621 2.87991L11.8664 2.35785L11.8664 2.35785L12.1621 2.87991ZM15.838 2.87997L16.1338 2.35795L16.1338 2.35794L15.838 2.87997ZM17.0002 4.22192C16.9715 3.93506 16.9466 3.67987 16.9063 3.471C16.8642 3.25298 16.7966 3.03167 16.6517 2.82662L15.6717 3.51915C15.6789 3.52939 15.7022 3.56463 15.728 3.69825C15.7555 3.84102 15.7753 4.03255 15.8061 4.34132L17.0002 4.22192ZM17.2659 5.78409C17.2657 5.78397 17.2652 5.78351 17.2642 5.78242C17.2632 5.78131 17.2614 5.77917 17.2588 5.77558C17.2537 5.76837 17.2449 5.75448 17.2338 5.73034C17.2104 5.67925 17.183 5.59671 17.1551 5.46293C17.0975 5.18658 17.0581 4.80086 17.0002 4.22192L15.8061 4.34132C15.8612 4.8924 15.9066 5.3542 15.9804 5.70795C16.053 6.0562 16.1757 6.42656 16.4788 6.68995L17.2659 5.78409ZM17.5002 5.88115C17.4136 5.87508 17.3314 5.84101 17.2659 5.78409L16.4788 6.68995C16.7409 6.91763 17.0699 7.0539 17.4162 7.07821L17.5002 5.88115ZM18.7927 4.9644C18.3424 5.33283 18.0418 5.57772 17.8056 5.73238C17.6913 5.80724 17.6135 5.84624 17.5608 5.86579C17.5359 5.87503 17.5199 5.87866 17.5112 5.88011C17.5068 5.88083 17.504 5.88106 17.5025 5.88113C17.5011 5.88121 17.5004 5.88116 17.5002 5.88115L17.4162 7.07821C17.8168 7.10633 18.1654 6.93117 18.463 6.73628C18.7653 6.53832 19.1239 6.24385 19.5525 5.89315L18.7927 4.9644ZM20.0257 4.22422C19.7782 4.26675 19.5739 4.3754 19.39 4.49983C19.2139 4.61904 19.0158 4.78185 18.7927 4.9644L19.5525 5.89315C19.7927 5.69665 19.9421 5.57518 20.0625 5.49369C20.1752 5.41744 20.2166 5.409 20.229 5.40687L20.0257 4.22422ZM20.7233 4.25901C20.4962 4.19618 20.258 4.1843 20.0257 4.22422L20.229 5.40687C20.287 5.39689 20.3466 5.39986 20.4034 5.41557L20.7233 4.25901ZM21.8766 5.11821C21.6727 4.91437 21.4919 4.73265 21.3284 4.59651C21.1578 4.4544 20.9653 4.32595 20.7233 4.25901L20.4034 5.41557C20.4155 5.41892 20.4558 5.43143 20.5604 5.51852C20.6721 5.61158 20.8086 5.74732 21.0281 5.96674L21.8766 5.11821ZM22.8817 6.12336L21.8766 5.11821L21.0281 5.96674L22.0332 6.97189L22.8817 6.12336ZM23.741 7.27666C23.674 7.03466 23.5456 6.84215 23.4035 6.67155C23.2673 6.50811 23.0856 6.32721 22.8817 6.12336L22.0332 6.97189C22.2526 7.19132 22.3884 7.32787 22.4814 7.43959C22.5685 7.54414 22.581 7.5845 22.5844 7.59658L23.741 7.27666ZM23.7757 7.97423C23.8157 7.74199 23.8038 7.50379 23.741 7.27665L22.5844 7.59659C22.6001 7.65337 22.6031 7.71291 22.5931 7.77099L23.7757 7.97423ZM23.0356 9.20729C23.2181 8.98418 23.3809 8.7861 23.5001 8.60992C23.6246 8.42603 23.7332 8.2217 23.7757 7.97424L22.5931 7.77098C22.591 7.78334 22.5825 7.82474 22.5063 7.93744C22.4248 8.05786 22.3033 8.20724 22.1068 8.44741L23.0356 9.20729ZM23.0564 9.18027L23.0564 9.18025L22.086 8.47445L22.0859 8.47446L23.0564 9.18027ZM22.1188 10.4998C22.1188 10.4996 22.1187 10.4989 22.1188 10.4975C22.1189 10.496 22.1191 10.4932 22.1198 10.4888C22.1213 10.4801 22.1249 10.4641 22.1341 10.4392C22.1537 10.3865 22.1927 10.3087 22.2676 10.1944C22.4222 9.95823 22.6671 9.65763 23.0356 9.20731L22.1068 8.44742C21.7561 8.87607 21.4616 9.23469 21.2637 9.537C21.0688 9.83462 20.8936 10.1832 20.9217 10.5839L22.1188 10.4998ZM22.2158 10.7341C22.1589 10.6686 22.1249 10.5864 22.1188 10.4998L20.9217 10.5839C20.946 10.9301 21.0823 11.2591 21.31 11.5211L22.2158 10.7341ZM23.7781 10.9998C23.1991 10.9419 22.8134 10.9025 22.537 10.8449C22.4032 10.817 22.3207 10.7896 22.2696 10.7662C22.2455 10.7551 22.2316 10.7463 22.2243 10.7412C22.2208 10.7386 22.2186 10.7368 22.2175 10.7358C22.2164 10.7348 22.216 10.7343 22.2158 10.7341L21.31 11.5211C21.5734 11.8243 21.9437 11.947 22.292 12.0196C22.6457 12.0934 23.1076 12.1387 23.6587 12.1939L23.7781 10.9998ZM25.1734 11.3483C24.9683 11.2034 24.747 11.1358 24.529 11.0937C24.3201 11.0534 24.0649 11.0285 23.7781 10.9998L23.6587 12.1939C23.9674 12.2247 24.159 12.2445 24.3018 12.272C24.4354 12.2978 24.4706 12.3211 24.4809 12.3283L25.1734 11.3483ZM25.642 11.8662C25.5259 11.6612 25.3658 11.4843 25.1734 11.3483L24.4809 12.3283C24.529 12.3623 24.569 12.4065 24.598 12.4578L25.642 11.8662ZM25.85 13.2893C25.85 13.001 25.8506 12.7446 25.8313 12.5327C25.8111 12.3116 25.7658 12.0846 25.642 11.8662L24.598 12.4578C24.6042 12.4687 24.6239 12.5061 24.6362 12.6416C24.6494 12.7864 24.65 12.979 24.65 13.2893H25.85ZM25.85 14.7109V13.2893H24.65V14.7109H25.85ZM25.6421 16.1337C25.7659 15.9152 25.8111 15.6883 25.8313 15.4673C25.8506 15.2555 25.85 14.9991 25.85 14.7109H24.65C24.65 15.0211 24.6494 15.2136 24.6362 15.3584C24.6239 15.4939 24.6042 15.5313 24.598 15.5422L25.6421 16.1337ZM25.1733 16.6518C25.3658 16.5157 25.5259 16.3388 25.6421 16.1337L24.598 15.5422C24.569 15.5935 24.529 15.6377 24.4808 15.6717L25.1733 16.6518ZM23.7782 17.0002C24.065 16.9715 24.3201 16.9466 24.529 16.9063C24.7469 16.8643 24.9682 16.7966 25.1733 16.6518L24.4808 15.6717C24.4706 15.6789 24.4353 15.7022 24.3017 15.728C24.159 15.7555 23.9675 15.7753 23.6588 15.8061L23.7782 17.0002ZM22.2163 17.2658C22.2164 17.2656 22.2169 17.2651 22.218 17.2641C22.2191 17.2631 22.2212 17.2613 22.2248 17.2587C22.232 17.2536 22.2459 17.2448 22.2701 17.2338C22.3212 17.2103 22.4037 17.1829 22.5374 17.1551C22.8137 17.0974 23.1994 17.0581 23.7782 17.0002L23.6588 15.8061C23.1078 15.8612 22.6461 15.9066 22.2925 15.9803C21.9443 16.0529 21.574 16.1755 21.3106 16.4785L22.2163 17.2658ZM22.1192 17.5002C22.1253 17.4136 22.1594 17.3313 22.2163 17.2658L21.3106 16.4785C21.0827 16.7407 20.9464 17.0699 20.9221 17.4165L22.1192 17.5002ZM23.0357 18.7923C22.6674 18.3422 22.4226 18.0417 22.268 17.8056C22.1931 17.6913 22.1541 17.6136 22.1346 17.5609C22.1253 17.536 22.1217 17.52 22.1202 17.5112C22.1195 17.5069 22.1193 17.5041 22.1192 17.5026C22.1191 17.5011 22.1192 17.5004 22.1192 17.5002L20.9221 17.4165C20.8941 17.817 21.0692 18.1655 21.2641 18.463C21.462 18.7652 21.7564 19.1237 22.107 19.5522L23.0357 18.7923ZM22.9956 18.748L22.9956 18.748L22.1471 19.5965L22.1471 19.5965L22.9956 18.748ZM23.7758 20.025C23.7332 19.7776 23.6246 19.5734 23.5002 19.3895C23.381 19.2134 23.2182 19.0154 23.0357 18.7923L22.107 19.5522C22.3034 19.7923 22.4249 19.9417 22.5063 20.062C22.5826 20.1747 22.591 20.2161 22.5931 20.2285L23.7758 20.025ZM23.7409 20.7231C23.8038 20.4958 23.8157 20.2574 23.7758 20.025L22.5931 20.2285C22.6031 20.2866 22.6002 20.3462 22.5844 20.403L23.7409 20.7231ZM22.8819 21.876C23.0857 21.6722 23.2674 21.4914 23.4035 21.328C23.5456 21.1574 23.674 20.965 23.7409 20.7231L22.5844 20.403C22.5811 20.4151 22.5686 20.4554 22.4815 20.5599C22.3885 20.6716 22.2528 20.8081 22.0334 21.0275L22.8819 21.876ZM21.8766 22.8813L22.8819 21.876L22.0334 21.0275L21.0281 22.0328L21.8766 22.8813ZM20.7234 23.7405C20.9654 23.6735 21.1579 23.5451 21.3285 23.403C21.4919 23.2668 21.6728 23.0851 21.8766 22.8813L21.0281 22.0328C20.8087 22.2522 20.6721 22.3879 20.5604 22.481C20.4559 22.5681 20.4155 22.5806 20.4034 22.5839L20.7234 23.7405ZM20.0258 23.7753C20.258 23.8152 20.4962 23.8033 20.7234 23.7405L20.4034 22.5839C20.3466 22.5996 20.2871 22.6026 20.229 22.5926L20.0258 23.7753ZM18.7927 23.0351C19.0158 23.2177 19.2139 23.3805 19.3901 23.4997C19.574 23.6241 19.7783 23.7328 20.0258 23.7753L20.229 22.5926C20.2167 22.5905 20.1753 22.5821 20.0626 22.5058C19.9421 22.4243 19.7928 22.3029 19.5526 22.1064L18.7927 23.0351ZM17.5002 22.1183C17.5004 22.1183 17.5011 22.1183 17.5026 22.1184C17.5041 22.1184 17.5069 22.1187 17.5112 22.1194C17.52 22.1208 17.536 22.1245 17.5609 22.1337C17.6136 22.1533 17.6913 22.1923 17.8056 22.2671C18.0418 22.4218 18.3424 22.6667 18.7927 23.0351L19.5526 22.1064C19.124 21.7557 18.7653 21.4612 18.463 21.2632C18.1654 21.0683 17.8168 20.8932 17.4162 20.9213L17.5002 22.1183ZM17.2659 22.2154C17.3314 22.1585 17.4137 22.1244 17.5002 22.1183L17.4162 20.9213C17.0699 20.9456 16.7409 21.0819 16.4789 21.3095L17.2659 22.2154ZM17.0002 23.7778C17.0581 23.1988 17.0975 22.813 17.1552 22.5366C17.1831 22.4028 17.2104 22.3203 17.2339 22.2692C17.245 22.245 17.2537 22.2311 17.2589 22.2239C17.2614 22.2203 17.2633 22.2182 17.2643 22.2171C17.2653 22.216 17.2658 22.2155 17.2659 22.2154L16.4789 21.3095C16.1757 21.573 16.0531 21.9433 15.9804 22.2916C15.9066 22.6454 15.8613 23.1072 15.8062 23.6584L17.0002 23.7778ZM16.6516 25.1736C16.7965 24.9685 16.8642 24.7471 16.9063 24.529C16.9466 24.3201 16.9715 24.0648 17.0002 23.7778L15.8062 23.6584C15.7753 23.9673 15.7555 24.1589 15.728 24.3017C15.7022 24.4354 15.6789 24.4707 15.6716 24.4809L16.6516 25.1736ZM16.134 25.642C16.3389 25.5258 16.5156 25.3659 16.6515 25.1736L15.6716 24.4809C15.6377 24.529 15.5935 24.569 15.5423 24.598L16.134 25.642ZM14.7106 25.85C14.9989 25.85 15.2554 25.8506 15.4673 25.8313C15.6885 25.8111 15.9155 25.7658 16.134 25.6419L15.5423 24.598C15.5313 24.6042 15.494 24.6239 15.3584 24.6362C15.2136 24.6494 15.021 24.65 14.7106 24.65V25.85ZM13.2893 25.85H14.7106V24.65H13.2893V25.85ZM11.8662 25.642C12.0846 25.7658 12.3116 25.8111 12.5327 25.8313C12.7446 25.8506 13.001 25.85 13.2893 25.85V24.65C12.9789 24.65 12.7864 24.6494 12.6416 24.6362C12.5061 24.6239 12.4687 24.6042 12.4578 24.598L11.8662 25.642ZM11.3483 25.1734C11.4843 25.3658 11.6612 25.5259 11.8662 25.642L12.4578 24.598C12.4065 24.569 12.3623 24.529 12.3283 24.4809L11.3483 25.1734ZM10.9998 23.7781C11.0285 24.0649 11.0534 24.3201 11.0937 24.529C11.1358 24.747 11.2034 24.9683 11.3483 25.1734L12.3283 24.4809C12.3211 24.4706 12.2978 24.4354 12.272 24.3018C12.2445 24.159 12.2247 23.9674 12.1939 23.6587L10.9998 23.7781ZM10.7341 22.2158C10.7343 22.216 10.7348 22.2164 10.7358 22.2175C10.7368 22.2186 10.7386 22.2208 10.7412 22.2244C10.7463 22.2316 10.7551 22.2455 10.7662 22.2696C10.7896 22.3207 10.817 22.4032 10.8449 22.537C10.9025 22.8134 10.9419 23.1991 10.9998 23.7781L12.1939 23.6587C12.1387 23.1076 12.0934 22.6457 12.0196 22.292C11.947 21.9437 11.8243 21.5734 11.5211 21.31L10.7341 22.2158ZM10.4998 22.1188C10.5864 22.1249 10.6686 22.1589 10.7341 22.2158L11.5211 21.31C11.2591 21.0823 10.9301 20.9461 10.5839 20.9217L10.4998 22.1188ZM9.20728 23.0356C9.65761 22.6671 9.95822 22.4222 10.1944 22.2676C10.3087 22.1927 10.3865 22.1537 10.4392 22.1342C10.4641 22.1249 10.4801 22.1213 10.4888 22.1198C10.4932 22.1191 10.496 22.1189 10.4975 22.1188C10.4989 22.1187 10.4996 22.1188 10.4998 22.1188L10.5839 20.9217C10.1833 20.8936 9.83463 21.0688 9.537 21.2637C9.23468 21.4616 8.87605 21.7561 8.44739 22.1068L9.20728 23.0356ZM7.97416 23.7758C8.22163 23.7333 8.42597 23.6246 8.60987 23.5002C8.78606 23.381 8.98415 23.2181 9.20728 23.0356L8.44739 22.1068C8.20721 22.3034 8.05782 22.4248 7.93739 22.5063C7.82469 22.5826 7.78328 22.591 7.77092 22.5931L7.97416 23.7758ZM7.27663 23.741C7.50374 23.8038 7.74193 23.8157 7.97417 23.7758L7.77092 22.5931C7.71286 22.6031 7.65332 22.6001 7.59655 22.5844L7.27663 23.741ZM6.12329 22.8818C6.32715 23.0856 6.50805 23.2674 6.6715 23.4035C6.84211 23.5456 7.03462 23.6741 7.27664 23.741L7.59654 22.5844C7.58446 22.5811 7.5441 22.5686 7.43954 22.4815C7.32782 22.3884 7.19126 22.2527 6.97182 22.0332L6.12329 22.8818ZM5.11817 21.8767L6.12329 22.8818L6.97182 22.0332L5.9667 21.0281L5.11817 21.8767ZM4.25895 20.7233C4.32589 20.9653 4.45434 21.1579 4.59646 21.3285C4.7326 21.4919 4.91432 21.6728 5.11817 21.8767L5.9667 21.0281C5.74727 20.8087 5.61154 20.6721 5.51847 20.5604C5.43138 20.4559 5.41886 20.4155 5.41552 20.4034L4.25895 20.7233ZM4.22416 20.0258C4.18425 20.258 4.19613 20.4962 4.25895 20.7233L5.41552 20.4034C5.39981 20.3466 5.39684 20.2871 5.40682 20.229L4.22416 20.0258ZM4.96437 18.7927C4.78181 19.0158 4.61899 19.2139 4.49978 19.3901C4.37535 19.574 4.26669 19.7783 4.22416 20.0258L5.40682 20.229C5.40895 20.2167 5.41738 20.1753 5.49364 20.0626C5.57513 19.9421 5.69661 19.7928 5.89312 19.5526L4.96437 18.7927ZM5.88114 17.5002C5.88116 17.5004 5.8812 17.5011 5.88113 17.5025C5.88105 17.504 5.88082 17.5068 5.8801 17.5112C5.87865 17.5199 5.87502 17.5359 5.86578 17.5608C5.84623 17.6135 5.80723 17.6913 5.73236 17.8056C5.5777 18.0418 5.33281 18.3424 4.96437 18.7927L5.89312 19.5526C6.24383 19.1239 6.5383 18.7653 6.73627 18.463C6.93116 18.1654 7.10632 17.8168 7.0782 17.4161L5.88114 17.5002ZM5.78408 17.2659C5.841 17.3314 5.87507 17.4136 5.88114 17.5002L7.0782 17.4162C7.05389 17.0699 6.91762 16.7409 6.68995 16.4788L5.78408 17.2659ZM4.22191 17.0002C4.80085 17.0581 5.18657 17.0975 5.46293 17.1551C5.5967 17.183 5.67924 17.2104 5.73033 17.2338C5.75447 17.2449 5.76836 17.2537 5.77557 17.2588C5.77916 17.2614 5.7813 17.2632 5.78241 17.2642C5.7835 17.2652 5.78397 17.2657 5.78408 17.2659L6.68995 16.4788C6.42656 16.1757 6.0562 16.053 5.70794 15.9804C5.3542 15.9066 4.89239 15.8612 4.34131 15.8061L4.22191 17.0002ZM2.82662 16.6517C3.03167 16.7966 3.25298 16.8642 3.471 16.9063C3.67987 16.9466 3.93506 16.9715 4.22191 17.0002L4.34131 15.8061C4.03254 15.7753 3.84102 15.7555 3.69825 15.728C3.56464 15.7022 3.52939 15.6789 3.51915 15.6717L2.82662 16.6517ZM2.35794 16.1338C2.47412 16.3388 2.63416 16.5157 2.82662 16.6517L3.51915 15.6717C3.47104 15.6377 3.43103 15.5935 3.40199 15.5422L2.35794 16.1338ZM2.15 14.7107C2.15 14.999 2.14942 15.2554 2.16872 15.4673C2.18887 15.6884 2.23416 15.9153 2.35794 16.1338L3.40199 15.5422C3.3958 15.5313 3.37612 15.4939 3.36377 15.3584C3.35058 15.2136 3.35 15.0211 3.35 14.7107H2.15ZM2.15 13.2894V14.7107H3.35V13.2894H2.15ZM2.35803 11.866C2.2342 12.0845 2.18888 12.3115 2.16873 12.5327C2.14942 12.7446 2.15 13.001 2.15 13.2894H3.35C3.35 12.979 3.35058 12.7864 3.36378 12.6416C3.37613 12.5061 3.39582 12.4687 3.40201 12.4578L2.35803 11.866ZM2.82647 11.3484C2.63413 11.4844 2.47417 11.6611 2.35803 11.866L3.40201 12.4578C3.43104 12.4065 3.47103 12.3623 3.51912 12.3283L2.82647 11.3484ZM4.22203 10.9998C3.93512 11.0285 3.67988 11.0534 3.47097 11.0937C3.25291 11.1358 3.03155 11.2035 2.82647 11.3484L3.51912 12.3283C3.52936 12.3211 3.56461 12.2978 3.69824 12.272C3.84104 12.2445 4.0326 12.2247 4.34144 12.1938L4.22203 10.9998ZM4.28175 10.9968H4.28174V12.1968H4.28175V10.9968ZM5.78455 10.734C5.78443 10.7342 5.78397 10.7347 5.78288 10.7357C5.78176 10.7367 5.77962 10.7385 5.77604 10.7411C5.76883 10.7462 5.75493 10.755 5.73079 10.7661C5.6797 10.7895 5.59715 10.8169 5.46334 10.8448C5.18693 10.9025 4.80112 10.9419 4.22205 10.9998L4.34145 12.1938C4.89266 12.1387 5.35456 12.0934 5.70838 12.0196C6.05671 11.9469 6.42714 11.8242 6.69055 11.5209L5.78455 10.734ZM5.88156 10.4998C5.87547 10.5864 5.84143 10.6686 5.78455 10.734L6.69055 11.5209C6.91805 11.259 7.05425 10.9302 7.0786 10.5841L5.88156 10.4998ZM4.96456 9.20699C5.3331 9.65743 5.57806 9.95811 5.73276 10.1944C5.80764 10.3087 5.84665 10.3865 5.8662 10.4392C5.87544 10.4641 5.87907 10.4801 5.88052 10.4888C5.88124 10.4932 5.88147 10.496 5.88154 10.4975C5.88162 10.499 5.88157 10.4997 5.88156 10.4998L7.0786 10.5841C7.1068 10.1834 6.93161 9.83466 6.73667 9.53697C6.53867 9.23458 6.24412 8.87586 5.89331 8.4471L4.96456 9.20699ZM4.22417 7.97347C4.26667 8.22103 4.37535 8.42543 4.49982 8.60939C4.61907 8.78563 4.78194 8.98379 4.96456 9.20699L5.89331 8.4471C5.69674 8.20684 5.57521 8.0574 5.4937 7.93693C5.41742 7.82418 5.40899 7.78277 5.40686 7.77041L4.22417 7.97347ZM4.25894 7.2764C4.19619 7.50337 4.18432 7.74139 4.22417 7.97347L5.40686 7.77041C5.3969 7.71239 5.39987 7.65288 5.41556 7.59614L4.25894 7.2764ZM5.11836 6.12271C4.91445 6.32662 4.73267 6.50758 4.59649 6.67107C4.45433 6.84174 4.32586 7.03431 4.25894 7.2764L5.41556 7.59614C5.4189 7.58405 5.43141 7.54368 5.51853 7.43909C5.61161 7.32733 5.74739 7.19074 5.96689 6.97124L5.11836 6.12271ZM5.11836 6.12271L5.11836 6.12271L5.96689 6.97124L5.96689 6.97124L5.11836 6.12271ZM6.12335 5.11772L5.11836 6.12271L5.96689 6.97124L6.97188 5.96625L6.12335 5.11772ZM7.27669 4.25849C7.03467 4.32543 6.84216 4.45388 6.67155 4.596C6.50811 4.73215 6.3272 4.91387 6.12335 5.11772L6.97188 5.96625C7.19131 5.74682 7.32787 5.61108 7.43959 5.51801C7.54415 5.43092 7.58451 5.4184 7.59659 5.41506L7.27669 4.25849ZM7.97421 4.2237C7.74198 4.18379 7.5038 4.19567 7.27668 4.25849L7.59659 5.41506C7.65337 5.39936 7.71292 5.39639 7.77098 5.40636L7.97421 4.2237ZM9.20741 4.96398C8.98426 4.7814 8.78615 4.61856 8.60995 4.49934C8.42604 4.3749 8.22169 4.26623 7.97421 4.2237L7.77098 5.40636C7.78332 5.40848 7.82473 5.41692 7.93746 5.4932C8.05791 5.5747 8.20732 5.6962 8.44753 5.89273L9.20741 4.96398ZM10.4998 5.88071C10.4996 5.88073 10.4989 5.88077 10.4975 5.8807C10.496 5.88062 10.4932 5.88039 10.4888 5.87967C10.4801 5.87822 10.4641 5.87459 10.4392 5.86535C10.3865 5.84579 10.3087 5.80678 10.1944 5.73192C9.95826 5.57726 9.65768 5.33239 9.20741 4.96398L8.44753 5.89273C8.87613 6.24341 9.23471 6.53784 9.53698 6.7358C9.83454 6.93067 10.1831 7.10583 10.5836 7.07778L10.4998 5.88071ZM10.7342 5.7836C10.6687 5.84056 10.5864 5.87465 10.4998 5.88071L10.5836 7.07778C10.9301 7.05352 11.2593 6.91717 11.5214 6.68934L10.7342 5.7836ZM10.9998 4.22177C10.9419 4.80058 10.9026 5.18621 10.8449 5.46251C10.8171 5.59625 10.7897 5.67878 10.7662 5.72986C10.7552 5.754 10.7464 5.76789 10.7413 5.7751C10.7387 5.77868 10.7369 5.78083 10.7359 5.78194C10.7349 5.78303 10.7344 5.78349 10.7342 5.7836L11.5214 6.68934C11.8245 6.42596 11.9471 6.05567 12.0197 5.70749C12.0934 5.35382 12.1388 4.89212 12.1939 4.34117L10.9998 4.22177ZM11.3482 2.82677C11.2034 3.03179 11.1357 3.25306 11.0937 3.47103C11.0534 3.67985 11.0285 3.93498 10.9998 4.22177L12.1939 4.34117C12.2247 4.03247 12.2445 3.84099 12.272 3.69825C12.2978 3.56467 12.3211 3.52943 12.3283 3.51919L11.3482 2.82677ZM11.8664 2.35785C11.6612 2.47407 11.4843 2.63419 11.3482 2.82677L12.3283 3.51919C12.3623 3.47105 12.4065 3.43102 12.4578 3.40196L11.8664 2.35785ZM13.2891 2.15C13.0009 2.15 12.7445 2.14942 12.5328 2.16871C12.3117 2.18885 12.0848 2.23412 11.8664 2.35785L12.4578 3.40196C12.4687 3.39579 12.5061 3.37611 12.6416 3.36376C12.7864 3.35058 12.9789 3.35 13.2891 3.35V2.15ZM14.7107 2.15H13.2891V3.35H14.7107V2.15ZM16.1338 2.35794C15.9153 2.23416 15.6884 2.18887 15.4673 2.16872C15.2554 2.14942 14.999 2.15 14.7107 2.15V3.35C15.0211 3.35 15.2136 3.35058 15.3584 3.36377C15.4939 3.37612 15.5313 3.3958 15.5422 3.40199L16.1338 2.35794ZM16.6517 2.82661C16.5157 2.63416 16.3388 2.47412 16.1338 2.35795L15.5422 3.40199C15.5935 3.43103 15.6377 3.47104 15.6717 3.51916L16.6517 2.82661ZM17.9 14C17.9 16.1539 16.1539 17.9 14 17.9V19.1C16.8167 19.1 19.1 16.8167 19.1 14H17.9ZM14 10.1C16.1539 10.1 17.9 11.8461 17.9 14H19.1C19.1 11.1833 16.8167 8.9 14 8.9V10.1ZM10.1 14C10.1 11.8461 11.8461 10.1 14 10.1V8.9C11.1833 8.9 8.9 11.1833 8.9 14H10.1ZM14 17.9C11.8461 17.9 10.1 16.1539 10.1 14H8.9C8.9 16.8167 11.1833 19.1 14 19.1V17.9Z"
        fill="#3D3C3C" />
</svg>
